<svg xmlns="http://www.w3.org/2000/svg" width="24" height="24" fill="#ffffff" viewBox="0 0 24 24">
  <path d="M12 2.163c3.204 0 3.584.012 4.85.07 1.18.056 1.97.24 2.427.403a4.92 4.92 0 0 1 1.75 1.145 4.92 4.92 0 0 1 1.145 1.75c.163.457.347 1.247.403 2.427.058 1.266.07 1.646.07 4.85s-.012 3.584-.07 4.85c-.056 1.18-.24 1.97-.403 2.427a4.92 4.92 0 0 1-1.145 1.75 4.92 4.92 0 0 1-1.75 1.145c-.457.163-1.247.347-2.427.403-1.266.058-1.646.07-4.85.07s-3.584-.012-4.85-.07c-1.18-.056-1.97-.24-2.427-.403a4.92 4.92 0 0 1-1.75-1.145 4.92 4.92 0 0 1-1.145-1.75c-.163-.457-.347-1.247-.403-2.427C2.175 15.584 2.163 15.204 2.163 12s.012-3.584.07-4.85c.056-1.18.24-1.97.403-2.427A4.92 4.92 0 0 1 3.781 2.973a4.92 4.92 0 0 1 1.75-1.145c.457-.163 1.247-.347 2.427-.403C8.416 2.175 8.796 2.163 12 2.163zm0 3.675A6.162 6.162 0 1 0 18.163 12 6.162 6.162 0 0 0 12 5.838zm6.406-1.845a1.44 1.44 0 1 0 1.44 1.44 1.44 1.44 0 0 0-1.44-1.44z"></path>
</svg>
