<svg xmlns="http://www.w3.org/2000/svg" xmlns:xlink="http://www.w3.org/1999/xlink" width="128" zoomAndPan="magnify" viewBox="0 0 96 95.999999" height="128" preserveAspectRatio="xMidYMid meet" version="1.0"><defs><g/><clipPath id="bccda03712"><path d="M 16.101562 0.160156 L 79.851562 0.160156 L 79.851562 63.910156 L 16.101562 63.910156 Z M 16.101562 0.160156 " clip-rule="nonzero"/></clipPath><clipPath id="222d88c103"><rect x="0" width="96" y="0" height="26"/></clipPath><clipPath id="daf6ce4684"><path d="M 0 87 L 96 87 L 96 91.601562 L 0 91.601562 Z M 0 87 " clip-rule="nonzero"/></clipPath><clipPath id="f3b115cb94"><path d="M 56 1 L 60 1 L 60 4.601562 L 56 4.601562 Z M 56 1 " clip-rule="nonzero"/></clipPath><clipPath id="9e8392b268"><path d="M 59 0.28125 L 64 0.28125 L 64 4 L 59 4 Z M 59 0.28125 " clip-rule="nonzero"/></clipPath><clipPath id="d9cd9cc798"><rect x="0" width="96" y="0" height="5"/></clipPath><clipPath id="0aac84e698"><rect x="0" width="96" y="0" height="92"/></clipPath></defs><g transform="matrix(1, 0, 0, 1, 0, 2)"><g clip-path="url(#0aac84e698)"><g clip-path="url(#bccda03712)"><path fill="#fafafa" d="M 36.453125 20.839844 C 39.523438 20.359375 42.203125 18.964844 44.285156 17.480469 L 51.707031 17.480469 C 53.789062 18.964844 56.472656 20.359375 59.542969 20.839844 C 60.195312 20.941406 60.664062 21.492188 60.664062 22.152344 L 60.664062 32.039062 C 60.664062 39.183594 53.414062 45.183594 47.996094 46.632812 C 42.578125 45.183594 35.328125 39.183594 35.328125 32.039062 L 35.328125 22.152344 C 35.328125 21.492188 35.800781 20.941406 36.453125 20.839844 Z M 28.15625 38.371094 C 27.78125 37.367188 26.8125 36.652344 25.679688 36.652344 C 24.214844 36.652344 23.03125 37.839844 23.03125 39.300781 C 23.03125 40.761719 24.214844 41.949219 25.679688 41.949219 C 26.8125 41.949219 27.78125 41.234375 28.15625 40.230469 L 36.210938 40.230469 C 35.796875 39.632812 35.421875 39.011719 35.085938 38.371094 Z M 47.996094 33.082031 C 47.144531 33.082031 46.453125 33.773438 46.453125 34.625 C 46.453125 35.128906 46.695312 35.574219 47.066406 35.855469 L 47.066406 37.191406 C 47.066406 37.707031 47.484375 38.121094 47.996094 38.121094 C 48.511719 38.121094 48.925781 37.707031 48.925781 37.191406 L 48.925781 35.855469 C 49.300781 35.574219 49.539062 35.128906 49.539062 34.625 C 49.539062 33.773438 48.851562 33.082031 47.996094 33.082031 Z M 41.683594 45.632812 C 41.035156 45.183594 40.410156 44.703125 39.824219 44.199219 L 39.824219 51.898438 C 38.820312 52.273438 38.105469 53.242188 38.105469 54.375 C 38.105469 55.839844 39.292969 57.023438 40.753906 57.023438 C 42.214844 57.023438 43.402344 55.839844 43.402344 54.375 C 43.402344 53.242188 42.6875 52.273438 41.683594 51.898438 Z M 55.242188 57.023438 C 56.703125 57.023438 57.886719 55.839844 57.886719 54.375 C 57.886719 53.242188 57.175781 52.273438 56.171875 51.898438 L 56.171875 44.199219 C 55.582031 44.703125 54.960938 45.183594 54.308594 45.632812 L 54.308594 51.898438 C 53.308594 52.273438 52.59375 53.242188 52.59375 54.375 C 52.59375 55.839844 53.777344 57.023438 55.242188 57.023438 Z M 59.785156 40.230469 L 67.835938 40.230469 C 68.214844 41.234375 69.183594 41.949219 70.316406 41.949219 C 71.777344 41.949219 72.964844 40.761719 72.964844 39.300781 C 72.964844 37.839844 71.777344 36.652344 70.316406 36.652344 C 69.183594 36.652344 68.214844 37.367188 67.835938 38.371094 L 60.90625 38.371094 C 60.574219 39.011719 60.199219 39.632812 59.785156 40.230469 Z M 23.03125 24.8125 C 23.03125 23.351562 24.214844 22.167969 25.679688 22.167969 C 26.8125 22.167969 27.78125 22.878906 28.15625 23.882812 L 33.46875 23.882812 L 33.46875 25.742188 L 28.15625 25.742188 C 27.78125 26.746094 26.8125 27.460938 25.679688 27.460938 C 24.214844 27.460938 23.03125 26.277344 23.03125 24.8125 Z M 39.824219 17.90625 C 40.460938 17.628906 41.082031 17.304688 41.683594 16.953125 L 41.683594 12.21875 C 42.6875 11.839844 43.402344 10.871094 43.402344 9.738281 C 43.402344 8.277344 42.214844 7.089844 40.753906 7.089844 C 39.292969 7.089844 38.105469 8.277344 38.105469 9.738281 C 38.105469 10.871094 38.820312 11.839844 39.824219 12.21875 Z M 16.101562 32.058594 C 16.101562 30.59375 17.285156 29.410156 18.746094 29.410156 C 19.882812 29.410156 20.851562 30.125 21.226562 31.125 L 33.46875 31.125 L 33.46875 32.039062 C 33.46875 32.359375 33.480469 32.675781 33.503906 32.988281 L 21.226562 32.988281 C 20.851562 33.992188 19.882812 34.703125 18.746094 34.703125 C 17.285156 34.703125 16.101562 33.519531 16.101562 32.058594 Z M 55.242188 7.089844 C 53.777344 7.089844 52.59375 8.277344 52.59375 9.738281 C 52.59375 10.871094 53.308594 11.839844 54.308594 12.214844 L 54.308594 16.953125 C 54.910156 17.304688 55.53125 17.625 56.171875 17.90625 L 56.171875 12.214844 C 57.175781 11.839844 57.886719 10.871094 57.886719 9.738281 C 57.886719 8.277344 56.703125 7.089844 55.242188 7.089844 Z M 62.527344 23.882812 L 67.835938 23.882812 C 68.214844 22.878906 69.183594 22.167969 70.316406 22.167969 C 71.777344 22.167969 72.964844 23.351562 72.964844 24.8125 C 72.964844 26.277344 71.777344 27.460938 70.316406 27.460938 C 69.183594 27.460938 68.214844 26.746094 67.835938 25.742188 L 62.527344 25.742188 Z M 47.996094 0.160156 C 49.460938 0.160156 50.644531 1.34375 50.644531 2.808594 C 50.644531 3.941406 49.929688 4.910156 48.925781 5.285156 L 48.925781 15.617188 L 47.066406 15.617188 L 47.066406 5.285156 C 46.0625 4.910156 45.351562 3.941406 45.351562 2.808594 C 45.351562 1.34375 46.535156 0.160156 47.996094 0.160156 Z M 79.894531 32.058594 C 79.894531 30.59375 78.710938 29.410156 77.246094 29.410156 C 76.113281 29.410156 75.144531 30.125 74.769531 31.125 L 62.527344 31.125 L 62.527344 32.039062 C 62.527344 32.359375 62.511719 32.675781 62.488281 32.988281 L 74.769531 32.988281 C 75.144531 33.992188 76.113281 34.703125 77.246094 34.703125 C 78.710938 34.703125 79.894531 33.519531 79.894531 32.058594 Z M 47.996094 63.953125 C 49.460938 63.953125 50.644531 62.769531 50.644531 61.308594 C 50.644531 60.171875 49.929688 59.203125 48.925781 58.828125 L 48.925781 48.304688 C 48.621094 48.398438 48.308594 48.476562 47.996094 48.5625 C 47.6875 48.476562 47.375 48.398438 47.066406 48.304688 L 47.066406 58.828125 C 46.0625 59.203125 45.351562 60.171875 45.351562 61.308594 C 45.351562 62.769531 46.535156 63.953125 47.996094 63.953125 Z M 43.105469 29.433594 L 42.121094 29.433594 C 41.609375 29.433594 41.191406 29.847656 41.191406 30.363281 L 41.191406 35.625 C 41.191406 39.371094 44.253906 42.429688 47.996094 42.429688 C 51.742188 42.429688 54.800781 39.371094 54.800781 35.625 L 54.800781 30.363281 C 54.800781 29.847656 54.386719 29.433594 53.871094 29.433594 L 52.890625 29.433594 L 52.890625 26.578125 C 52.890625 23.882812 50.691406 21.683594 47.996094 21.683594 C 45.304688 21.683594 43.105469 23.882812 43.105469 26.578125 Z M 51.03125 29.433594 L 51.03125 26.578125 C 51.03125 24.910156 49.664062 23.542969 47.996094 23.542969 C 46.332031 23.542969 44.964844 24.910156 44.964844 26.578125 L 44.964844 29.433594 Z M 51.03125 29.433594 " fill-opacity="1" fill-rule="evenodd"/></g><g transform="matrix(1, 0, 0, 1, 0, 63)"><g clip-path="url(#222d88c103)"><g fill="#fafafa" fill-opacity="1"><g transform="translate(0.0000005, 20.345921)"><g><path d="M 20.75 0 L 1.8125 0 L 1.8125 -16.21875 L 8.609375 -16.21875 L 8.609375 -4.015625 L 20.75 -4.015625 Z M 20.75 0 "/></g></g></g><g fill="#fafafa" fill-opacity="1"><g transform="translate(20.513454, 20.345921)"><g><path d="M 12.265625 0.34375 C 8.253906 0.34375 5.304688 -0.476562 3.421875 -2.125 C 1.742188 -3.582031 0.90625 -5.570312 0.90625 -8.09375 C 0.90625 -10.625 1.742188 -12.617188 3.421875 -14.078125 C 5.304688 -15.722656 8.253906 -16.546875 12.265625 -16.546875 C 14.546875 -16.546875 16.441406 -16.289062 17.953125 -15.78125 C 19.472656 -15.269531 20.664062 -14.570312 21.53125 -13.6875 C 22.394531 -12.800781 22.984375 -11.78125 23.296875 -10.625 L 16.015625 -10.625 C 15.253906 -11.675781 14.003906 -12.203125 12.265625 -12.203125 C 10.617188 -12.203125 9.410156 -11.726562 8.640625 -10.78125 C 8.023438 -10.019531 7.71875 -9.125 7.71875 -8.09375 C 7.71875 -7.0625 8.023438 -6.171875 8.640625 -5.421875 C 9.410156 -4.472656 10.617188 -4 12.265625 -4 C 13.597656 -4 14.597656 -4.113281 15.265625 -4.34375 C 15.929688 -4.570312 16.414062 -4.875 16.71875 -5.25 L 14.0625 -5.25 L 14.0625 -8.09375 L 23.296875 -8.09375 L 23.296875 0.015625 L 20.46875 0.015625 L 19.90625 -1.5625 C 18.101562 -0.289062 15.554688 0.34375 12.265625 0.34375 Z M 12.265625 0.34375 "/></g></g></g><g fill="#fafafa" fill-opacity="1"><g transform="translate(45.163664, 20.345921)"><g><path d="M 8.609375 0 L 1.8125 0 L 1.8125 -16.21875 L 12.875 -16.21875 C 15.519531 -16.21875 17.65625 -16.019531 19.28125 -15.625 C 20.90625 -15.226562 22.085938 -14.609375 22.828125 -13.765625 C 23.578125 -12.921875 23.953125 -11.816406 23.953125 -10.453125 C 23.953125 -9.085938 23.578125 -7.984375 22.828125 -7.140625 C 22.085938 -6.296875 20.90625 -5.675781 19.28125 -5.28125 C 17.65625 -4.882812 15.519531 -4.6875 12.875 -4.6875 L 8.609375 -4.6875 Z M 8.609375 -8.6875 L 12.5 -8.6875 C 13.59375 -8.6875 14.453125 -8.726562 15.078125 -8.8125 C 15.703125 -8.90625 16.160156 -9.03125 16.453125 -9.1875 C 16.753906 -9.351562 16.945312 -9.539062 17.03125 -9.75 C 17.113281 -9.96875 17.15625 -10.203125 17.15625 -10.453125 C 17.15625 -10.703125 17.113281 -10.929688 17.03125 -11.140625 C 16.945312 -11.359375 16.753906 -11.546875 16.453125 -11.703125 C 16.160156 -11.867188 15.703125 -11.992188 15.078125 -12.078125 C 14.453125 -12.171875 13.59375 -12.21875 12.5 -12.21875 L 8.609375 -12.21875 Z M 8.609375 -8.6875 "/></g></g></g><g fill="#fafafa" fill-opacity="1"><g transform="translate(70.017315, 20.345921)"><g><path d="M 12.65625 0 L 1.8125 0 L 1.8125 -16.21875 L 12.65625 -16.21875 C 17.101562 -16.21875 20.296875 -15.597656 22.234375 -14.359375 C 23.804688 -13.359375 24.703125 -11.992188 24.921875 -10.265625 C 25.015625 -9.515625 25.0625 -8.796875 25.0625 -8.109375 C 25.0625 -7.421875 25.015625 -6.703125 24.921875 -5.953125 C 24.828125 -5.203125 24.578125 -4.472656 24.171875 -3.765625 C 23.765625 -3.066406 23.117188 -2.429688 22.234375 -1.859375 C 21.347656 -1.296875 20.132812 -0.84375 18.59375 -0.5 C 17.050781 -0.164062 15.070312 0 12.65625 0 Z M 12.015625 -4.015625 C 15.472656 -4.015625 17.429688 -4.890625 17.890625 -6.640625 C 18.003906 -7.128906 18.0625 -7.617188 18.0625 -8.109375 C 18.0625 -8.609375 18 -9.097656 17.875 -9.578125 C 17.75 -10.066406 17.484375 -10.507812 17.078125 -10.90625 C 16.679688 -11.300781 16.078125 -11.617188 15.265625 -11.859375 C 14.460938 -12.097656 13.378906 -12.21875 12.015625 -12.21875 L 8.609375 -12.21875 L 8.609375 -4.015625 Z M 12.015625 -4.015625 "/></g></g></g></g></g><g clip-path="url(#daf6ce4684)"><g transform="matrix(1, 0, 0, 1, 0, 87)"><g clip-path="url(#d9cd9cc798)"><g fill="#fafafa" fill-opacity="1"><g transform="translate(0.896101, 3.698938)"><g><path d="M 3.234375 0 L 0.28125 0 L 0.28125 -2.53125 L 1.34375 -2.53125 L 1.34375 -0.625 L 3.234375 -0.625 Z M 3.234375 0 "/></g></g><g transform="translate(4.194898, 3.698938)"><g><path d="M 3.328125 0 L 0.28125 0 L 0.28125 -2.53125 L 3.1875 -2.53125 L 3.1875 -1.90625 L 1.34375 -1.90625 L 1.34375 -1.5 L 2.90625 -1.5 L 2.90625 -1.015625 L 1.34375 -1.015625 L 1.34375 -0.625 L 3.328125 -0.625 Z M 3.328125 0 "/></g></g><g transform="translate(7.657316, 3.698938)"><g><path d="M 1.34375 0 L 0.28125 0 L 0.28125 -2.53125 L 1.34375 -2.53125 Z M 1.34375 0 "/></g></g><g transform="translate(9.279445, 3.698938)"><g/></g><g transform="translate(10.173199, 3.698938)"><g><path d="M 1.90625 0.046875 C 1.28125 0.046875 0.820312 -0.078125 0.53125 -0.328125 C 0.269531 -0.554688 0.140625 -0.867188 0.140625 -1.265625 C 0.140625 -1.660156 0.269531 -1.96875 0.53125 -2.1875 C 0.820312 -2.445312 1.28125 -2.578125 1.90625 -2.578125 C 2.269531 -2.578125 2.566406 -2.535156 2.796875 -2.453125 C 3.035156 -2.378906 3.222656 -2.269531 3.359375 -2.125 C 3.492188 -1.988281 3.582031 -1.832031 3.625 -1.65625 L 2.5 -1.65625 C 2.375 -1.820312 2.175781 -1.90625 1.90625 -1.90625 C 1.65625 -1.90625 1.46875 -1.832031 1.34375 -1.6875 C 1.25 -1.5625 1.203125 -1.421875 1.203125 -1.265625 C 1.203125 -1.097656 1.25 -0.957031 1.34375 -0.84375 C 1.46875 -0.695312 1.65625 -0.625 1.90625 -0.625 C 2.113281 -0.625 2.269531 -0.640625 2.375 -0.671875 C 2.476562 -0.710938 2.554688 -0.757812 2.609375 -0.8125 L 2.1875 -0.8125 L 2.1875 -1.265625 L 3.625 -1.265625 L 3.625 0 L 3.1875 0 L 3.109375 -0.25 C 2.828125 -0.0507812 2.425781 0.046875 1.90625 0.046875 Z M 1.90625 0.046875 "/></g></g><g transform="translate(14.01036, 3.698938)"><g><path d="M 3.328125 0 L 0.28125 0 L 0.28125 -2.53125 L 3.1875 -2.53125 L 3.1875 -1.90625 L 1.34375 -1.90625 L 1.34375 -1.5 L 2.90625 -1.5 L 2.90625 -1.015625 L 1.34375 -1.015625 L 1.34375 -0.625 L 3.328125 -0.625 Z M 3.328125 0 "/></g></g><g transform="translate(17.472778, 3.698938)"><g><path d="M 3.734375 0 L 2.734375 0 C 2.679688 -0.0625 2.648438 -0.144531 2.640625 -0.25 C 2.617188 -0.320312 2.59375 -0.394531 2.5625 -0.46875 C 2.53125 -0.539062 2.472656 -0.597656 2.390625 -0.640625 C 2.304688 -0.691406 2.1875 -0.722656 2.03125 -0.734375 L 1.34375 -0.734375 L 1.34375 0 L 0.28125 0 L 0.28125 -2.53125 L 2 -2.53125 C 2.414062 -2.53125 2.75 -2.5 3 -2.4375 C 3.257812 -2.375 3.445312 -2.273438 3.5625 -2.140625 C 3.675781 -2.015625 3.734375 -1.84375 3.734375 -1.625 C 3.734375 -1.445312 3.691406 -1.296875 3.609375 -1.171875 C 3.535156 -1.054688 3.410156 -0.960938 3.234375 -0.890625 C 3.398438 -0.828125 3.507812 -0.742188 3.5625 -0.640625 C 3.613281 -0.546875 3.644531 -0.441406 3.65625 -0.328125 C 3.664062 -0.222656 3.691406 -0.113281 3.734375 0 Z M 1.34375 -1.359375 L 1.953125 -1.359375 C 2.117188 -1.359375 2.25 -1.363281 2.34375 -1.375 C 2.445312 -1.394531 2.519531 -1.414062 2.5625 -1.4375 C 2.613281 -1.46875 2.644531 -1.5 2.65625 -1.53125 C 2.664062 -1.5625 2.671875 -1.59375 2.671875 -1.625 C 2.671875 -1.65625 2.664062 -1.6875 2.65625 -1.71875 C 2.644531 -1.757812 2.613281 -1.789062 2.5625 -1.8125 C 2.519531 -1.84375 2.445312 -1.863281 2.34375 -1.875 C 2.25 -1.894531 2.117188 -1.90625 1.953125 -1.90625 L 1.34375 -1.90625 Z M 1.34375 -1.359375 "/></g></g><g transform="translate(21.341608, 3.698938)"><g><path d="M 4.25 0 L 3.171875 0 L 2.9375 -0.421875 L 1.34375 -0.421875 L 1.09375 0 L 0.03125 0 L 1.640625 -2.53125 L 2.625 -2.53125 Z M 2.578125 -1.046875 L 2.140625 -1.8125 L 1.703125 -1.046875 Z M 2.578125 -1.046875 "/></g></g><g transform="translate(25.608053, 3.698938)"><g><path d="M 3.234375 0 L 0.28125 0 L 0.28125 -2.53125 L 1.34375 -2.53125 L 1.34375 -0.625 L 3.234375 -0.625 Z M 3.234375 0 "/></g></g><g transform="translate(28.906851, 3.698938)"><g/></g><g transform="translate(29.800605, 3.698938)"><g><path d="M 1.96875 0 L 0.28125 0 L 0.28125 -2.53125 L 1.96875 -2.53125 C 2.664062 -2.53125 3.164062 -2.429688 3.46875 -2.234375 C 3.707031 -2.078125 3.847656 -1.863281 3.890625 -1.59375 C 3.898438 -1.476562 3.90625 -1.367188 3.90625 -1.265625 C 3.90625 -1.160156 3.894531 -1.046875 3.875 -0.921875 C 3.863281 -0.804688 3.828125 -0.691406 3.765625 -0.578125 C 3.703125 -0.472656 3.601562 -0.375 3.46875 -0.28125 C 3.332031 -0.195312 3.140625 -0.128906 2.890625 -0.078125 C 2.648438 -0.0234375 2.34375 0 1.96875 0 Z M 1.875 -0.625 C 2.414062 -0.625 2.71875 -0.757812 2.78125 -1.03125 C 2.800781 -1.113281 2.8125 -1.191406 2.8125 -1.265625 C 2.8125 -1.335938 2.800781 -1.410156 2.78125 -1.484375 C 2.769531 -1.566406 2.726562 -1.640625 2.65625 -1.703125 C 2.59375 -1.765625 2.5 -1.8125 2.375 -1.84375 C 2.25 -1.882812 2.082031 -1.90625 1.875 -1.90625 L 1.34375 -1.90625 L 1.34375 -0.625 Z M 1.875 -0.625 "/></g></g><g transform="translate(33.841852, 3.698938)"><g><path d="M 3.328125 0 L 0.28125 0 L 0.28125 -2.53125 L 3.1875 -2.53125 L 3.1875 -1.90625 L 1.34375 -1.90625 L 1.34375 -1.5 L 2.90625 -1.5 L 2.90625 -1.015625 L 1.34375 -1.015625 L 1.34375 -0.625 L 3.328125 -0.625 Z M 3.328125 0 "/></g></g><g transform="translate(37.30427, 3.698938)"><g/></g><g transform="translate(38.198024, 3.698938)"><g><path d="M 1.34375 0 L 0.28125 0 L 0.28125 -2.53125 L 2 -2.53125 C 2.414062 -2.53125 2.75 -2.5 3 -2.4375 C 3.257812 -2.375 3.445312 -2.273438 3.5625 -2.140625 C 3.675781 -2.015625 3.734375 -1.84375 3.734375 -1.625 C 3.734375 -1.414062 3.675781 -1.242188 3.5625 -1.109375 C 3.445312 -0.984375 3.257812 -0.890625 3 -0.828125 C 2.75 -0.765625 2.414062 -0.734375 2 -0.734375 L 1.34375 -0.734375 Z M 1.34375 -1.359375 L 1.953125 -1.359375 C 2.117188 -1.359375 2.25 -1.363281 2.34375 -1.375 C 2.445312 -1.382812 2.519531 -1.398438 2.5625 -1.421875 C 2.613281 -1.453125 2.644531 -1.484375 2.65625 -1.515625 C 2.664062 -1.546875 2.671875 -1.582031 2.671875 -1.625 C 2.671875 -1.664062 2.664062 -1.703125 2.65625 -1.734375 C 2.644531 -1.765625 2.613281 -1.789062 2.5625 -1.8125 C 2.519531 -1.84375 2.445312 -1.863281 2.34375 -1.875 C 2.25 -1.894531 2.117188 -1.90625 1.953125 -1.90625 L 1.34375 -1.90625 Z M 1.34375 -1.359375 "/></g></g><g transform="translate(42.066854, 3.698938)"><g><path d="M 3.734375 0 L 2.734375 0 C 2.679688 -0.0625 2.648438 -0.144531 2.640625 -0.25 C 2.617188 -0.320312 2.59375 -0.394531 2.5625 -0.46875 C 2.53125 -0.539062 2.472656 -0.597656 2.390625 -0.640625 C 2.304688 -0.691406 2.1875 -0.722656 2.03125 -0.734375 L 1.34375 -0.734375 L 1.34375 0 L 0.28125 0 L 0.28125 -2.53125 L 2 -2.53125 C 2.414062 -2.53125 2.75 -2.5 3 -2.4375 C 3.257812 -2.375 3.445312 -2.273438 3.5625 -2.140625 C 3.675781 -2.015625 3.734375 -1.84375 3.734375 -1.625 C 3.734375 -1.445312 3.691406 -1.296875 3.609375 -1.171875 C 3.535156 -1.054688 3.410156 -0.960938 3.234375 -0.890625 C 3.398438 -0.828125 3.507812 -0.742188 3.5625 -0.640625 C 3.613281 -0.546875 3.644531 -0.441406 3.65625 -0.328125 C 3.664062 -0.222656 3.691406 -0.113281 3.734375 0 Z M 1.34375 -1.359375 L 1.953125 -1.359375 C 2.117188 -1.359375 2.25 -1.363281 2.34375 -1.375 C 2.445312 -1.394531 2.519531 -1.414062 2.5625 -1.4375 C 2.613281 -1.46875 2.644531 -1.5 2.65625 -1.53125 C 2.664062 -1.5625 2.671875 -1.59375 2.671875 -1.625 C 2.671875 -1.65625 2.664062 -1.6875 2.65625 -1.71875 C 2.644531 -1.757812 2.613281 -1.789062 2.5625 -1.8125 C 2.519531 -1.84375 2.445312 -1.863281 2.34375 -1.875 C 2.25 -1.894531 2.117188 -1.90625 1.953125 -1.90625 L 1.34375 -1.90625 Z M 1.34375 -1.359375 "/></g></g><g transform="translate(45.935683, 3.698938)"><g><path d="M 1.90625 0.046875 C 1.28125 0.046875 0.820312 -0.078125 0.53125 -0.328125 C 0.269531 -0.554688 0.140625 -0.867188 0.140625 -1.265625 C 0.140625 -1.660156 0.269531 -1.96875 0.53125 -2.1875 C 0.820312 -2.445312 1.28125 -2.578125 1.90625 -2.578125 C 2.53125 -2.578125 2.992188 -2.445312 3.296875 -2.1875 C 3.554688 -1.96875 3.6875 -1.660156 3.6875 -1.265625 C 3.6875 -0.867188 3.554688 -0.554688 3.296875 -0.328125 C 2.992188 -0.078125 2.53125 0.046875 1.90625 0.046875 Z M 1.90625 -0.625 C 2.164062 -0.625 2.351562 -0.695312 2.46875 -0.84375 C 2.570312 -0.957031 2.625 -1.097656 2.625 -1.265625 C 2.625 -1.421875 2.570312 -1.5625 2.46875 -1.6875 C 2.351562 -1.832031 2.164062 -1.90625 1.90625 -1.90625 C 1.65625 -1.90625 1.46875 -1.832031 1.34375 -1.6875 C 1.25 -1.5625 1.203125 -1.421875 1.203125 -1.265625 C 1.203125 -1.097656 1.25 -0.957031 1.34375 -0.84375 C 1.46875 -0.695312 1.65625 -0.625 1.90625 -0.625 Z M 1.90625 -0.625 "/></g></g></g><g fill="#fafafa" fill-opacity="1"><g transform="translate(49.612743, 3.698938)"><g><path d="M 2.15625 0 L 1.09375 0 L 1.09375 -1.90625 L 0.109375 -1.90625 L 0.109375 -2.53125 L 3.140625 -2.53125 L 3.140625 -1.90625 L 2.15625 -1.90625 Z M 2.15625 0 "/></g></g><g transform="translate(52.860519, 3.698938)"><g><path d="M 3.328125 0 L 0.28125 0 L 0.28125 -2.53125 L 3.1875 -2.53125 L 3.1875 -1.90625 L 1.34375 -1.90625 L 1.34375 -1.5 L 2.90625 -1.5 L 2.90625 -1.015625 L 1.34375 -1.015625 L 1.34375 -0.625 L 3.328125 -0.625 Z M 3.328125 0 "/></g></g></g><g clip-path="url(#f3b115cb94)"><g fill="#fafafa" fill-opacity="1"><g transform="translate(56.182189, 3.698938)"><g><path d="M 1.78125 0.640625 L 1.75 0.640625 C 1.6875 0.640625 1.632812 0.632812 1.59375 0.625 L 1.515625 0.625 L 1.515625 0.453125 L 1.578125 0.46875 C 1.628906 0.46875 1.679688 0.46875 1.734375 0.46875 C 1.765625 0.46875 1.800781 0.460938 1.84375 0.453125 C 1.882812 0.453125 1.921875 0.441406 1.953125 0.421875 C 1.984375 0.410156 2 0.382812 2 0.34375 C 2 0.300781 1.988281 0.269531 1.96875 0.25 C 1.945312 0.226562 1.910156 0.21875 1.859375 0.21875 C 1.835938 0.21875 1.8125 0.222656 1.78125 0.234375 C 1.75 0.242188 1.722656 0.25 1.703125 0.25 L 1.65625 0.265625 L 1.71875 0.078125 L 1.734375 0.0625 C 1.753906 0.0625 1.773438 0.0625 1.796875 0.0625 L 1.796875 0.046875 C 1.210938 0.0234375 0.785156 -0.109375 0.515625 -0.359375 C 0.265625 -0.585938 0.140625 -0.890625 0.140625 -1.265625 C 0.140625 -1.660156 0.269531 -1.972656 0.53125 -2.203125 C 0.820312 -2.453125 1.28125 -2.578125 1.90625 -2.578125 C 2.28125 -2.578125 2.585938 -2.535156 2.828125 -2.453125 C 3.066406 -2.367188 3.25 -2.253906 3.375 -2.109375 C 3.507812 -1.960938 3.597656 -1.796875 3.640625 -1.609375 L 2.53125 -1.609375 C 2.414062 -1.804688 2.207031 -1.90625 1.90625 -1.90625 C 1.65625 -1.90625 1.46875 -1.832031 1.34375 -1.6875 C 1.25 -1.570312 1.203125 -1.429688 1.203125 -1.265625 C 1.203125 -1.109375 1.25 -0.96875 1.34375 -0.84375 C 1.46875 -0.695312 1.65625 -0.625 1.90625 -0.625 C 2.207031 -0.625 2.414062 -0.722656 2.53125 -0.921875 L 3.640625 -0.921875 C 3.578125 -0.640625 3.410156 -0.410156 3.140625 -0.234375 C 2.878906 -0.0546875 2.484375 0.0351562 1.953125 0.046875 L 1.953125 0.0625 C 2.003906 0.0625 2.050781 0.0664062 2.09375 0.078125 C 2.144531 0.0976562 2.1875 0.128906 2.21875 0.171875 C 2.25 0.210938 2.265625 0.269531 2.265625 0.34375 C 2.265625 0.414062 2.238281 0.472656 2.1875 0.515625 C 2.132812 0.554688 2.070312 0.582031 2 0.59375 C 1.925781 0.613281 1.851562 0.628906 1.78125 0.640625 Z M 1.78125 0.640625 "/></g></g></g></g><g clip-path="url(#9e8392b268)"><g fill="#fafafa" fill-opacity="1"><g transform="translate(59.679794, 3.698938)"><g><path d="M 4.25 0 L 3.171875 0 L 2.9375 -0.421875 L 1.34375 -0.421875 L 1.09375 0 L 0.03125 0 L 1.640625 -2.53125 L 2.625 -2.53125 Z M 2.578125 -1.046875 L 2.140625 -1.8125 L 1.703125 -1.046875 Z M 2.53125 -2.75 C 2.445312 -2.75 2.328125 -2.78125 2.171875 -2.84375 C 2.054688 -2.882812 1.960938 -2.90625 1.890625 -2.90625 C 1.816406 -2.90625 1.78125 -2.851562 1.78125 -2.75 L 1.4375 -2.75 C 1.4375 -3.019531 1.515625 -3.175781 1.671875 -3.21875 C 1.710938 -3.226562 1.753906 -3.234375 1.796875 -3.234375 C 1.878906 -3.234375 1.992188 -3.210938 2.140625 -3.171875 C 2.253906 -3.140625 2.332031 -3.125 2.375 -3.125 C 2.40625 -3.125 2.429688 -3.128906 2.453125 -3.140625 C 2.472656 -3.148438 2.484375 -3.179688 2.484375 -3.234375 L 2.84375 -3.234375 C 2.84375 -2.953125 2.765625 -2.796875 2.609375 -2.765625 C 2.585938 -2.753906 2.5625 -2.75 2.53125 -2.75 Z M 2.53125 -2.75 "/></g></g></g></g><g fill="#fafafa" fill-opacity="1"><g transform="translate(63.664741, 3.698938)"><g><path d="M 1.90625 0.046875 C 1.28125 0.046875 0.820312 -0.078125 0.53125 -0.328125 C 0.269531 -0.554688 0.140625 -0.867188 0.140625 -1.265625 C 0.140625 -1.660156 0.269531 -1.96875 0.53125 -2.1875 C 0.820312 -2.445312 1.28125 -2.578125 1.90625 -2.578125 C 2.53125 -2.578125 2.992188 -2.445312 3.296875 -2.1875 C 3.554688 -1.96875 3.6875 -1.660156 3.6875 -1.265625 C 3.6875 -0.867188 3.554688 -0.554688 3.296875 -0.328125 C 2.992188 -0.078125 2.53125 0.046875 1.90625 0.046875 Z M 1.90625 -0.625 C 2.164062 -0.625 2.351562 -0.695312 2.46875 -0.84375 C 2.570312 -0.957031 2.625 -1.097656 2.625 -1.265625 C 2.625 -1.421875 2.570312 -1.5625 2.46875 -1.6875 C 2.351562 -1.832031 2.164062 -1.90625 1.90625 -1.90625 C 1.65625 -1.90625 1.46875 -1.832031 1.34375 -1.6875 C 1.25 -1.5625 1.203125 -1.421875 1.203125 -1.265625 C 1.203125 -1.097656 1.25 -0.957031 1.34375 -0.84375 C 1.46875 -0.695312 1.65625 -0.625 1.90625 -0.625 Z M 1.90625 -0.625 "/></g></g><g transform="translate(67.48255, 3.698938)"><g/></g><g transform="translate(68.376304, 3.698938)"><g><path d="M 1.96875 0 L 0.28125 0 L 0.28125 -2.53125 L 1.96875 -2.53125 C 2.664062 -2.53125 3.164062 -2.429688 3.46875 -2.234375 C 3.707031 -2.078125 3.847656 -1.863281 3.890625 -1.59375 C 3.898438 -1.476562 3.90625 -1.367188 3.90625 -1.265625 C 3.90625 -1.160156 3.894531 -1.046875 3.875 -0.921875 C 3.863281 -0.804688 3.828125 -0.691406 3.765625 -0.578125 C 3.703125 -0.472656 3.601562 -0.375 3.46875 -0.28125 C 3.332031 -0.195312 3.140625 -0.128906 2.890625 -0.078125 C 2.648438 -0.0234375 2.34375 0 1.96875 0 Z M 1.875 -0.625 C 2.414062 -0.625 2.71875 -0.757812 2.78125 -1.03125 C 2.800781 -1.113281 2.8125 -1.191406 2.8125 -1.265625 C 2.8125 -1.335938 2.800781 -1.410156 2.78125 -1.484375 C 2.769531 -1.566406 2.726562 -1.640625 2.65625 -1.703125 C 2.59375 -1.765625 2.5 -1.8125 2.375 -1.84375 C 2.25 -1.882812 2.082031 -1.90625 1.875 -1.90625 L 1.34375 -1.90625 L 1.34375 -0.625 Z M 1.875 -0.625 "/></g></g><g transform="translate(72.417551, 3.698938)"><g><path d="M 3.328125 0 L 0.28125 0 L 0.28125 -2.53125 L 3.1875 -2.53125 L 3.1875 -1.90625 L 1.34375 -1.90625 L 1.34375 -1.5 L 2.90625 -1.5 L 2.90625 -1.015625 L 1.34375 -1.015625 L 1.34375 -0.625 L 3.328125 -0.625 Z M 3.328125 0 "/></g></g><g transform="translate(75.879969, 3.698938)"><g/></g><g transform="translate(76.773723, 3.698938)"><g><path d="M 1.96875 0 L 0.28125 0 L 0.28125 -2.53125 L 1.96875 -2.53125 C 2.664062 -2.53125 3.164062 -2.429688 3.46875 -2.234375 C 3.707031 -2.078125 3.847656 -1.863281 3.890625 -1.59375 C 3.898438 -1.476562 3.90625 -1.367188 3.90625 -1.265625 C 3.90625 -1.160156 3.894531 -1.046875 3.875 -0.921875 C 3.863281 -0.804688 3.828125 -0.691406 3.765625 -0.578125 C 3.703125 -0.472656 3.601562 -0.375 3.46875 -0.28125 C 3.332031 -0.195312 3.140625 -0.128906 2.890625 -0.078125 C 2.648438 -0.0234375 2.34375 0 1.96875 0 Z M 1.875 -0.625 C 2.414062 -0.625 2.71875 -0.757812 2.78125 -1.03125 C 2.800781 -1.113281 2.8125 -1.191406 2.8125 -1.265625 C 2.8125 -1.335938 2.800781 -1.410156 2.78125 -1.484375 C 2.769531 -1.566406 2.726562 -1.640625 2.65625 -1.703125 C 2.59375 -1.765625 2.5 -1.8125 2.375 -1.84375 C 2.25 -1.882812 2.082031 -1.90625 1.875 -1.90625 L 1.34375 -1.90625 L 1.34375 -0.625 Z M 1.875 -0.625 "/></g></g></g><g fill="#fafafa" fill-opacity="1"><g transform="translate(80.533473, 3.698938)"><g><path d="M 4.25 0 L 3.171875 0 L 2.9375 -0.421875 L 1.34375 -0.421875 L 1.09375 0 L 0.03125 0 L 1.640625 -2.53125 L 2.625 -2.53125 Z M 2.578125 -1.046875 L 2.140625 -1.8125 L 1.703125 -1.046875 Z M 2.578125 -1.046875 "/></g></g><g transform="translate(84.799917, 3.698938)"><g><path d="M 1.96875 0 L 0.28125 0 L 0.28125 -2.53125 L 1.96875 -2.53125 C 2.664062 -2.53125 3.164062 -2.429688 3.46875 -2.234375 C 3.707031 -2.078125 3.847656 -1.863281 3.890625 -1.59375 C 3.898438 -1.476562 3.90625 -1.367188 3.90625 -1.265625 C 3.90625 -1.160156 3.894531 -1.046875 3.875 -0.921875 C 3.863281 -0.804688 3.828125 -0.691406 3.765625 -0.578125 C 3.703125 -0.472656 3.601562 -0.375 3.46875 -0.28125 C 3.332031 -0.195312 3.140625 -0.128906 2.890625 -0.078125 C 2.648438 -0.0234375 2.34375 0 1.96875 0 Z M 1.875 -0.625 C 2.414062 -0.625 2.71875 -0.757812 2.78125 -1.03125 C 2.800781 -1.113281 2.8125 -1.191406 2.8125 -1.265625 C 2.8125 -1.335938 2.800781 -1.410156 2.78125 -1.484375 C 2.769531 -1.566406 2.726562 -1.640625 2.65625 -1.703125 C 2.59375 -1.765625 2.5 -1.8125 2.375 -1.84375 C 2.25 -1.882812 2.082031 -1.90625 1.875 -1.90625 L 1.34375 -1.90625 L 1.34375 -0.625 Z M 1.875 -0.625 "/></g></g><g transform="translate(88.841164, 3.698938)"><g><path d="M 1.90625 0.046875 C 1.28125 0.046875 0.820312 -0.078125 0.53125 -0.328125 C 0.269531 -0.554688 0.140625 -0.867188 0.140625 -1.265625 C 0.140625 -1.660156 0.269531 -1.96875 0.53125 -2.1875 C 0.820312 -2.445312 1.28125 -2.578125 1.90625 -2.578125 C 2.53125 -2.578125 2.992188 -2.445312 3.296875 -2.1875 C 3.554688 -1.96875 3.6875 -1.660156 3.6875 -1.265625 C 3.6875 -0.867188 3.554688 -0.554688 3.296875 -0.328125 C 2.992188 -0.078125 2.53125 0.046875 1.90625 0.046875 Z M 1.90625 -0.625 C 2.164062 -0.625 2.351562 -0.695312 2.46875 -0.84375 C 2.570312 -0.957031 2.625 -1.097656 2.625 -1.265625 C 2.625 -1.421875 2.570312 -1.5625 2.46875 -1.6875 C 2.351562 -1.832031 2.164062 -1.90625 1.90625 -1.90625 C 1.65625 -1.90625 1.46875 -1.832031 1.34375 -1.6875 C 1.25 -1.5625 1.203125 -1.421875 1.203125 -1.265625 C 1.203125 -1.097656 1.25 -0.957031 1.34375 -0.84375 C 1.46875 -0.695312 1.65625 -0.625 1.90625 -0.625 Z M 1.90625 -0.625 "/></g></g><g transform="translate(92.658973, 3.698938)"><g><path d="M 1.671875 0.046875 C 1.328125 0.046875 1.050781 0.0078125 0.84375 -0.0625 C 0.632812 -0.132812 0.472656 -0.234375 0.359375 -0.359375 C 0.253906 -0.484375 0.179688 -0.628906 0.140625 -0.796875 L 1.265625 -0.796875 C 1.347656 -0.679688 1.484375 -0.625 1.671875 -0.625 C 1.847656 -0.625 1.976562 -0.679688 2.0625 -0.796875 C 2.070312 -0.816406 2.078125 -0.828125 2.078125 -0.828125 C 2.078125 -0.867188 2.035156 -0.894531 1.953125 -0.90625 C 1.867188 -0.925781 1.742188 -0.9375 1.578125 -0.9375 C 1.367188 -0.945312 1.148438 -0.972656 0.921875 -1.015625 C 0.398438 -1.085938 0.140625 -1.289062 0.140625 -1.625 C 0.140625 -1.65625 0.140625 -1.6875 0.140625 -1.71875 C 0.179688 -1.882812 0.253906 -2.03125 0.359375 -2.15625 C 0.472656 -2.289062 0.632812 -2.394531 0.84375 -2.46875 C 1.050781 -2.539062 1.328125 -2.578125 1.671875 -2.578125 C 2.015625 -2.578125 2.289062 -2.539062 2.5 -2.46875 C 2.707031 -2.394531 2.863281 -2.289062 2.96875 -2.15625 C 3.082031 -2.03125 3.15625 -1.882812 3.1875 -1.71875 L 2.0625 -1.71875 C 1.976562 -1.84375 1.847656 -1.90625 1.671875 -1.90625 C 1.484375 -1.90625 1.347656 -1.84375 1.265625 -1.71875 C 1.265625 -1.707031 1.265625 -1.703125 1.265625 -1.703125 C 1.265625 -1.671875 1.300781 -1.644531 1.375 -1.625 C 1.457031 -1.613281 1.578125 -1.601562 1.734375 -1.59375 C 1.890625 -1.582031 2.054688 -1.566406 2.234375 -1.546875 C 2.421875 -1.523438 2.585938 -1.488281 2.734375 -1.4375 C 2.890625 -1.382812 3.015625 -1.304688 3.109375 -1.203125 C 3.171875 -1.128906 3.203125 -1.03125 3.203125 -0.90625 C 3.203125 -0.875 3.195312 -0.835938 3.1875 -0.796875 C 3.15625 -0.628906 3.082031 -0.484375 2.96875 -0.359375 C 2.863281 -0.234375 2.707031 -0.132812 2.5 -0.0625 C 2.289062 0.0078125 2.015625 0.046875 1.671875 0.046875 Z M 1.671875 0.046875 "/></g></g></g></g></g></g></g></g></svg>